<?xml version="1.0" encoding="utf-8" ?><svg xmlns="http://www.w3.org/2000/svg" xmlns:xlink="http://www.w3.org/1999/xlink" width="64" height="64" viewBox="0 0 64 64"><path fill="white" transform="scale(0.0625 0.0625)" d="M0 0L1024 0L1024 1024L0 1024L0 0Z"/><path fill="#262A44" transform="scale(0.0625 0.0625)" d="M457.229 30.439C460.448 32.6561 463.449 36.576 466.133 39.4545C476.759 50.9478 487.063 62.7344 497.033 74.8005C502.256 81.0491 507.784 87.0353 513.025 93.2666C527.74 111.069 542.284 129.014 556.653 147.097C593.072 194.208 627.554 242.785 660.013 292.708C662.417 287.044 664.537 281.241 667.21 275.697C673.437 262.783 681.007 250.338 688.655 238.227C706.243 209.94 726.34 183.293 748.703 158.607C756.443 149.926 764.772 139.913 773.981 132.802C776.051 131.204 778.743 129.259 781.525 129.744C793.188 131.78 837 187.151 845.66 198.854C870.276 232.117 902.463 280.716 909.635 321.755C911.658 333.33 911.552 344.852 909.778 356.448C904.581 391.811 885.542 423.657 856.853 444.975C823.663 469.443 792.281 473.109 752.595 466.998C760.684 483.016 766.651 500.393 772.392 517.36C783.97 551.583 799.076 599.749 798.729 635.605C798.561 652.93 796.197 670.721 793.18 687.767C780.5 762.504 744.394 831.276 690.076 884.154C675.616 897.424 660.812 909.776 644.51 920.772C597.601 951.944 543.661 970.929 487.569 976.011C398.619 984.707 309.938 957.019 241.737 899.258C173.313 841.745 126.937 752.445 119.365 663.323C117.943 646.592 116.788 629.926 118.477 613.167C121.154 586.602 128.627 559.649 136.951 534.349C161.578 459.496 200.09 387.062 241.088 319.995C268.577 274.436 298.237 230.223 329.966 187.51C354.738 154.324 380.298 121.734 406.625 89.7676C423.237 69.7787 440.486 50.3236 457.229 30.439Z"/><path fill="white" transform="scale(0.0625 0.0625)" d="M457.93 56.3463C462.603 60.1499 466.777 65.7773 470.838 70.3106C483.093 83.9931 494.762 97.8169 506.288 112.109C534.855 147.533 563.237 182.864 589.852 219.812C611.84 250.681 632.948 282.167 653.15 314.233C649.626 338.534 650.954 363.009 659.634 386.171C669.77 413.219 690.023 437.479 714.61 452.604C720.023 455.934 725.779 458.509 731.543 461.159C752.158 502.986 780.189 584.591 781.211 630.716C781.707 653.112 778.163 676.835 773.314 698.668C759.548 760.65 733.206 814.773 689.119 860.998C628.493 924.564 546.786 958.55 459.375 960.563C383.668 962.549 307.27 933.572 250.299 884.096C180.659 823.619 141.528 739.791 135.202 648.268C134.518 638.372 134.145 628.558 135.017 618.652C144.855 506.887 245.63 336.187 310.352 243.625C356.059 178.529 405.327 116.008 457.93 56.3463Z"/><path fill="#262A44" transform="scale(0.0625 0.0625)" d="M553.293 231.404C553.517 235.308 549.032 248.63 547.851 252.97C536.68 294.058 524.161 334.775 512.556 375.741L481.015 490.886C500.899 493.464 521.075 494.899 541.048 496.706C558.509 498.286 575.895 500.295 593.384 501.595C592.631 503.101 591.748 504.487 590.823 505.891C576.613 527.456 560.057 547.767 544.667 568.502C513.124 611.299 481.104 653.743 448.613 695.825L351.447 822.857C341.264 835.941 331.778 849.778 321.108 862.458C320.26 863.467 319.478 864.605 318.165 864.873L318.414 863.392C321.88 851.784 324.734 839.998 328.08 828.354L359.567 721.215L382.318 645.666C386.565 631.566 391.262 617.464 394.914 603.204C379.627 599.879 363.304 599.126 347.745 597.267C324.668 594.509 301.548 590.976 278.418 588.833C291.899 571.885 304.497 554.293 317.432 536.935L368.232 469.695L553.293 231.404Z"/><path fill="#71C2B9" transform="scale(0.0625 0.0625)" d="M512.361 311.913C512.496 313.883 502.645 346.141 501.432 350.51L481.511 423.376C473.844 450.893 465.788 478.621 459.641 506.512C493.919 508.925 528.055 513.056 562.315 515.826C553.053 529.927 542.04 543.271 532.023 556.868C508.753 588.447 485.263 619.862 461.554 651.112L400.839 730.515C390.654 744.119 380.349 757.632 369.927 771.055C366.537 775.509 363.648 780.478 360.123 784.78C359.621 785.394 359.374 785.631 358.637 785.898L358.566 784.258C361.47 773.319 364.987 762.486 368.225 751.638L382.08 704.778L401.729 640.635C406.851 623.292 412.081 605.981 417.417 588.703C381.769 583.501 345.727 580.155 309.953 575.821C318.787 561.329 330.543 548.164 340.731 534.584L409.371 444.368L479.938 353.034C490.347 339.703 500.872 324.085 512.361 311.913Z"/><path fill="#262A44" transform="scale(0.0625 0.0625)" d="M376.121 229.031C379.073 228.875 382.469 229.381 384.76 231.424C387.144 233.548 386.968 237.353 386 240.117C383.836 246.294 378.04 252.337 374.236 257.781C368.989 265.291 363.992 273.031 358.845 280.619C331.683 320.569 306.494 361.826 283.367 404.239C253.849 457.25 226.616 511.134 208.671 569.298C201.583 592.273 195.155 616.066 196.048 640.325C198.477 706.273 225.283 767.083 268.999 816.03C276.978 824.965 285.953 833.353 294.738 841.482C291.564 844.801 288.467 848.192 285.45 851.653C284.967 852.217 284.362 852.698 283.812 853.197C283.376 853.084 283.23 853.071 282.79 852.814C278.064 850.065 271.47 842.607 267.408 838.583C236.318 807.787 210.907 769.778 196.148 728.477C184.024 694.553 175.423 651.346 179.879 615.35C182.751 592.146 190.774 567.092 198.548 545.107C207.467 519.497 217.807 494.404 229.517 469.945C264.092 397.01 306.55 328.188 351.483 261.27C355.78 254.871 368.237 234.655 372.584 230.786C373.564 229.914 374.904 229.467 376.121 229.031Z"/><path fill="#262A44" transform="scale(0.0625 0.0625)" d="M505.996 898.547L507.671 898.487C510.259 901.266 512.05 911.081 513.06 915.072C502.628 918.46 492.1 920.62 481.369 922.768C479.796 923.217 478.581 923.527 476.94 923.402C475.184 920.289 474.033 910.479 473.223 906.472C484.205 904.066 495.232 901.823 505.996 898.547Z"/><path fill="#262A44" transform="scale(0.0625 0.0625)" d="M596.916 857.613C600.569 861.152 603.506 867.519 606.11 871.975C596.22 878.957 585.453 884.782 574.65 890.214L574.367 890.293C574.068 890.21 573.733 890.21 573.47 890.044C572.997 889.745 567.144 877.946 565.694 876.078C576.37 870.494 586.626 863.879 596.916 857.613Z"/><path fill="#262A44" transform="scale(0.0625 0.0625)" d="M717.455 654.819C722.804 655.124 728.156 655.381 733.509 655.588C732.997 668.686 730.69 681.869 727.726 694.609C722.279 694.057 716.904 692.526 711.606 691.195C714.567 679.117 715.713 667.089 717.455 654.819Z"/><path fill="#262A44" transform="scale(0.0625 0.0625)" d="M553.939 881.614C556.75 884.482 559.29 893.077 561.348 896.989C550.979 902.368 540.234 906.425 529.114 909.957C528.114 910.311 528.015 910.355 526.998 910.084C524.349 905.789 523.314 899.396 522.001 894.494C532.507 889.873 543.545 886.456 553.939 881.614Z"/><path fill="#262A44" transform="scale(0.0625 0.0625)" d="M708.319 705.178C713.457 706.688 718.714 707.815 723.927 709.036C721.342 721.961 716.844 734.053 711.81 746.187C709.704 746.5 699.068 740.91 696.535 739.746C701.038 728.42 705.539 717.072 708.319 705.178Z"/><path fill="#262A44" transform="scale(0.0625 0.0625)" d="M634.754 827.365C638.567 831.575 642.501 835.769 645.85 840.362C637.068 847.995 628.483 855.843 618.966 862.571C618.246 862.955 618.18 862.812 617.41 862.686C614.095 858.645 611.449 853.844 608.718 849.388C612.149 846.113 616.181 843.333 619.864 840.335C624.964 836.183 629.849 831.744 634.754 827.365Z"/><path fill="#262A44" transform="scale(0.0625 0.0625)" d="M666.907 792.781L680.295 802.831C672.382 811.699 665.107 820.971 656.981 829.69L656.704 829.883C654.286 829.512 645.989 820.864 643.996 818.507C652.486 810.804 659.582 801.57 666.907 792.781Z"/><path fill="#262A44" transform="scale(0.0625 0.0625)" d="M691.403 752.536C695.701 755.243 701.416 757.01 706.118 759.057C701.79 770.133 694.543 780.806 688.144 790.77L687.744 791.188C683.215 789.467 678.403 784.315 674.65 781.128C680.981 772.201 686.25 762.175 691.403 752.536Z"/><path fill="white" transform="scale(0.0625 0.0625)" d="M780.158 150.083C781.176 150.698 781.985 151.409 782.848 152.213C794.187 162.762 804.356 175.201 814.151 187.181C820.729 195.227 827.466 203.215 833.66 211.559C856.527 242.363 892.636 297.459 893.966 336.557C894.715 366.043 883.912 394.654 863.862 416.287C841.882 439.544 813.892 452.156 781.935 453.203C781.232 453.204 780.529 453.199 779.827 453.187C750.354 452.697 721.005 441.081 700.491 419.685C678.386 396.632 667.635 367.609 668.485 335.801C668.914 323.477 671.339 311.304 675.665 299.756C690.474 258.991 723.557 214.544 751.492 181.44C760.57 170.681 769.901 159.735 780.158 150.083Z"/><path fill="#262A44" transform="scale(0.0625 0.0625)" d="M698.954 334.543L715.133 334.441C716.165 351.79 719.469 367.06 731.007 380.739C744.902 397.212 765.448 402.071 786.005 403.732C786.089 409.352 786.143 414.972 786.166 420.592C783.531 420.431 780.898 420.222 778.271 419.968C753.956 417.666 732.378 408.916 716.645 389.672C704.788 375.166 697.058 353.379 698.954 334.543Z"/><path fill="#262A44" transform="scale(0.0625 0.0625)" d="M904.039 490.342C906.373 490.463 909.963 494.142 911.708 495.711C931.517 513.518 961.352 547.759 962.507 575.013C963.071 590.132 957.517 604.84 947.1 615.812C936.55 627.148 922.044 633.483 906.625 634.112C904.111 634.11 901.574 634.063 899.076 633.772C882.957 631.881 868.253 623.655 858.207 610.909C849.699 599.948 845.151 584.708 847.045 570.884C850.708 544.157 882.622 506.685 904.039 490.342Z"/><path fill="white" transform="scale(0.0625 0.0625)" d="M904.594 511.875C907.828 514.754 910.413 518.489 913.311 521.714C926.415 536.291 943.151 554.88 944.915 575.28C945.777 585.244 941.985 595.044 935.611 602.607C927.311 612.453 917.478 615.908 904.943 616.937C894.715 616.531 885.601 613.867 877.894 606.884C870.118 599.839 864.839 589.75 864.461 579.194C863.599 555.125 889.02 528.378 904.594 511.875Z"/><path fill="#262A44" transform="scale(0.0625 0.0625)" d="M149.661 203.59C152.834 203.846 156.042 204.531 158.125 207.174C159.488 208.902 159.953 211.058 159.855 213.22C159.67 217.281 158.191 221.47 157.056 225.348C154.13 235.344 149.849 246.186 148.354 256.452C148.326 256.639 148.304 256.828 148.279 257.015C155.773 256.917 163.273 256.763 170.767 256.768C174.801 256.771 179.717 256.964 182.655 260.154C184.054 261.673 184.614 263.654 184.492 265.691C184.322 268.551 182.924 270.196 180.992 272.154C172.469 280.788 161.92 287.965 152.688 295.887C132.551 313.175 112.596 330.673 92.8272 348.381C92.0258 348.872 91.1726 349.368 90.2792 349.67C88.1679 350.385 85.5854 350.247 83.6488 349.116C80.5344 347.298 79.5166 344.513 78.5159 341.231C80.1401 334.886 82.3631 328.594 84.2697 322.322C87.0063 313.115 89.6957 303.895 92.3378 294.661C85.3482 294.346 73.1895 295.576 67.1033 292.695C65.0556 291.726 63.2024 290.088 62.4624 287.891C61.6763 285.558 61.3988 281.571 62.7171 279.368C65.8741 274.094 94.3956 250.854 100.987 244.997C115.361 232.225 129.248 218.354 144.261 206.377C145.985 205.001 147.536 204.199 149.661 203.59Z"/><path fill="white" transform="scale(0.0625 0.0625)" d="M135.18 236.878C137.079 239.35 126.862 260.256 127.808 266.958C128.297 270.412 130.352 271.947 133.016 273.938C139.059 274.453 145.235 273.98 151.332 274.399C146.016 279.369 140.127 283.823 134.63 288.609C124.843 297.128 115.134 306.197 104.754 313.965C104.721 311.164 112.245 291.141 113.327 285.701C112.702 284.118 112.124 282.314 110.956 281.037C106.553 276.22 94.9758 278.132 88.7983 278.117C96.2747 272.81 102.81 266.323 109.559 260.142L135.18 236.878Z"/><path fill="#262A44" transform="scale(0.0625 0.0625)" d="M866.469 733.42C880.239 744.596 899.576 765.759 907.563 781.511C910.277 786.862 912.197 792.638 912.834 798.619C914.065 810.897 910.361 823.16 902.539 832.704C893.964 843.188 882.386 847.257 869.261 848.543C857.21 848.568 845.79 845.534 836.695 837.313C827.913 829.374 821.799 818.691 821.239 806.72C819.866 777.363 848.248 753.425 866.469 733.42Z"/><path fill="white" transform="scale(0.0625 0.0625)" d="M866.958 757.807C867.181 757.935 867.415 758.046 867.627 758.192C870.327 760.047 873.089 763.659 875.319 766.118C883.577 775.226 894.171 786.266 896.306 798.868C897.52 806.033 895.893 813.711 891.6 819.6C886.056 827.206 878.558 829.736 869.669 830.966C861.823 831.192 854.128 829.207 848.167 823.866C842.88 819.129 839.273 812.993 838.962 805.765C838.206 788.233 855.852 769.747 866.958 757.807Z"/></svg>