<?xml version="1.0" encoding="utf-8" ?><svg xmlns="http://www.w3.org/2000/svg" xmlns:xlink="http://www.w3.org/1999/xlink" width="64" height="64" viewBox="0 0 64 64"><path fill="#F5F5F4" transform="scale(0.0625 0.0625)" d="M0 0L1024 0L1024 1024L0 1024L0 0Z"/><path fill="#107582" transform="scale(0.0625 0.0625)" d="M500.787 52.9914C754.294 46.69 964.883 247.143 971.084 500.652C977.284 754.162 776.747 964.671 523.236 970.771C269.867 976.868 59.501 776.468 53.3037 523.101C47.1063 269.734 247.423 59.2893 500.787 52.9914Z"/><path fill="#F5F5F4" transform="scale(0.0625 0.0625)" d="M508.668 68.2477L509.162 68.2376C583.711 66.937 657.63 87.6462 722.897 122.954C735.182 129.6 747.534 136.648 759.096 144.501C781.27 159.825 802.089 177.023 821.324 195.905C906.509 278.263 954.993 391.42 955.861 509.905C956.337 540.872 952.616 572.09 946.312 602.373C932.268 671.798 901.279 736.674 856.103 791.229C845.024 804.722 832.821 817.536 820.671 830.07C815.025 823.999 810.073 817.687 803.592 812.39C778.549 791.918 748.818 785.099 717.135 788.151C711.968 781.604 705.814 775.901 698.894 771.248C674.484 755.019 643.563 752.683 615.486 758.304C613.602 756.446 611.711 754.58 609.677 752.886C594.834 740.523 579.725 740.193 561.424 741.778C560.473 740.778 559.507 739.792 558.525 738.821C546.101 726.51 532.197 723.084 515.069 723.125C515.104 688.174 523.555 640.103 532.026 605.488C534.898 593.756 538.563 582.235 541.465 570.512C556.107 569.873 570.706 569.853 585.358 569.893C589.329 577.487 591.61 586.799 594.543 594.898C602.637 617.249 613.254 637.377 628.877 655.475C652.042 682.312 683.666 702.275 719.72 704.781C747.991 706.747 771.689 701.099 798.195 692.198C815.591 686.447 832.6 679.586 849.118 671.659C856.051 668.406 866.667 665.031 872.083 660.064C873.586 658.685 874.633 657.221 874.627 655.093C874.613 649.08 868.337 641.703 865.136 636.833C862.101 632.217 859.334 627.432 856.185 622.891C843.577 604.712 828.819 587.151 812.696 571.974C801.419 561.359 787.724 551.057 773.97 543.891C764.987 539.21 754.975 535.714 745.299 532.732C709.829 521.8 673.4 519.69 637.549 530.4C627.117 533.517 616.159 537.626 606.687 543.015C601.226 546.123 595.893 551.741 589.914 553.55C583.703 555.429 575.708 554.524 569.255 554.684C561.597 554.875 553.941 555.288 546.282 555.526C549.499 547.483 551.993 539.082 554.891 530.913C559.829 516.92 565.387 503.154 571.547 489.654C598.122 432.815 632.115 382.625 668.737 332.043C678.804 318.139 690.417 299.87 703.526 289.086C696.136 292.495 689.758 297.674 683.233 302.467C651.885 325.888 623.258 352.746 597.888 382.539C593.297 372.652 588.034 363.406 582.753 353.889C588.742 337.057 589.988 316.135 590.026 298.411C590.125 251.591 573.532 207.485 540.337 174.19C529.957 164.368 518.486 156.084 506.279 148.673C479.348 132.323 450.298 120.654 420.224 111.562C415.78 110.218 408.977 106.569 404.432 107.679C403.122 108.783 402.557 110.173 402.087 111.789C400.25 118.105 399.146 134.845 398.333 142.285C396.824 156.855 395.857 171.476 395.434 186.118C393.861 228.064 395.886 274.155 423.688 308.393C448.394 338.818 486.406 354.2 524.112 360.7C539.537 363.359 555.473 364.521 571.05 366.125C577.472 375.549 582.467 385.462 587.322 395.753C579.704 406.883 571.611 417.726 564.316 429.071C553.347 446.129 543.564 464.288 534.298 482.323C526.788 496.939 519.215 512.014 513.293 527.357C500.985 518.611 489.937 508.096 476.951 500.225C475.925 492.034 473.481 483.493 471.34 475.508C467.912 462.727 463.02 450.659 457.196 438.796C442.727 409.329 424.505 387.555 395.858 371.032C386.212 365.469 376.149 360.544 365.591 356.965C320.448 341.663 265.226 343.92 219.691 356.32C216.842 357.096 208.928 358.882 207.643 361.763C205.799 365.894 211.873 382.626 213.538 387.345C225.926 422.451 246.281 467.941 270.932 496.019C281.848 508.453 295.299 519.386 310.303 526.495C361.835 550.913 419.955 531.844 470.177 513.937C482.302 521.75 495.692 533.498 506.788 542.978C502.718 554.596 498.388 566.103 494.682 577.85C477.563 631.304 467.407 686.744 464.468 742.796C462.76 742.4 461.038 742.063 459.306 741.787C434.265 737.993 416.332 744.014 396.395 758.702C382.672 757.389 370.06 755.248 356.132 756.945C333.418 759.712 310.267 768.619 295.84 787.047C287.439 786.7 279.131 786.564 270.739 787.324C242.55 789.876 217.295 801.775 199.116 823.721C198.189 822.872 197.272 822.012 196.364 821.142C180.931 806.394 167.341 789.739 154.683 772.584C100.562 699.577 70.4656 611.556 68.5569 520.697C67.0594 402.712 112.185 288.903 194.129 204.003C276.546 118.428 389.865 69.5197 508.668 68.2477Z"/><path fill="#107582" transform="scale(0.0625 0.0625)" d="M710.111 326.202C710.196 326.192 710.28 326.179 710.365 326.172C732.655 324.486 756.03 332.01 772.663 347.093C786.14 359.313 793.155 376.505 794.053 394.447C797.068 393.665 800.227 392.833 803.348 392.683C809.315 392.395 814.706 394.409 819.023 398.547C823.927 403.164 826.642 409.644 826.494 416.377C826.433 420.397 825.368 424.518 823.323 427.993C818.517 436.157 810.259 442.673 803.564 449.298L778.477 474.316C772.502 480.31 767.398 484.72 758.458 485.083C751.605 485.362 744.591 483.383 739.59 478.516C733.596 472.685 732.465 465.206 732.417 457.283C722.772 452.865 713.097 448.195 704.625 441.738C686.074 427.6 673.635 404.094 670.732 381.149C669.197 369.023 668.416 348.202 676.605 338.143C684.161 328.861 698.904 327.314 710.111 326.202Z"/><path fill="#F5F5F4" transform="scale(0.0625 0.0625)" d="M802.551 408.019C804.235 407.958 805.978 407.91 807.548 408.627C809.555 409.542 811.101 411.484 811.733 413.574C812.502 416.12 811.909 419.212 810.607 421.485C808.728 424.767 768.237 464.273 762.56 468.852C761.098 470.031 759.673 470.616 757.891 471.171C756.938 471.051 755.989 470.893 755.048 470.697C752.497 470.185 749.742 469.189 748.451 466.717C747.592 465.074 747.555 462.446 748.199 460.728C749.531 457.177 793.053 415.247 798.693 410.459C799.879 409.452 801.158 408.699 802.551 408.019Z"/><path fill="#F5F5F4" transform="scale(0.0625 0.0625)" d="M693.438 344.043C694.047 344.016 694.658 344.013 695.267 344.033C712.896 344.467 731.962 356.089 743.735 368.615C758.914 384.763 765.995 406.77 765.305 428.728C764.386 426.606 763.77 424.424 763.119 422.211C760.439 414.61 757.942 407.264 753.913 400.225C743.25 381.593 725.633 367.829 705.676 360.357C699.255 357.953 692.537 356.334 685.933 354.519C686.289 353.128 686.739 351.762 687.282 350.432C688.575 347.2 690.276 345.44 693.438 344.043Z"/><path fill="#F5F5F4" transform="scale(0.0625 0.0625)" d="M713.714 384.783C717.362 385.342 722.059 388.694 724.964 390.953C739.337 402.132 748.681 419.402 750.831 437.427C750.669 437.349 750.489 437.3 750.345 437.192C748.095 435.504 745.933 432.623 743.987 430.538C733.078 418.846 725.958 409.871 718.431 395.569C716.63 392.148 714.512 388.597 713.714 384.783Z"/><path fill="#107582" transform="scale(0.0625 0.0625)" d="M796.518 466.001C797.667 465.947 799.51 465.689 800.58 466.118C805.033 467.907 848.46 521.69 855.72 530.242C861.292 536.806 868.362 543.242 872.984 550.428C872.955 551.989 872.85 552.157 871.973 553.461C870.468 553.552 869.284 553.575 867.801 553.177C854.06 537.99 841.599 521.832 828.411 506.195C823.939 500.894 797.041 471.272 795.638 467.528L796.518 466.001Z"/><path fill="#107582" transform="scale(0.0625 0.0625)" d="M786.185 483.372C787.081 483.319 788.015 483.32 788.907 483.43C790.642 483.643 791.791 484.693 792.979 485.878C799.34 492.224 804.947 499.622 810.76 506.486C819.879 517.254 829.136 527.873 838.159 538.727C841.233 542.424 847.954 549.099 850.077 552.839C850.762 554.047 850.183 554.969 849.829 556.195C848.983 556.371 848.118 556.472 847.262 556.596C845.757 556.153 844.988 555.351 843.91 554.23C835.373 545.351 827.655 535.298 819.565 525.984C809.194 514.043 798.154 502.406 788.405 489.966C786.589 487.649 785.809 486.371 786.185 483.372Z"/><path fill="#107582" transform="scale(0.0625 0.0625)" d="M813.843 453.239C814.19 453.319 814.602 453.397 814.924 453.549C817.673 454.851 865.898 512.022 870.883 518.34C871.796 519.497 872.647 520.495 873.039 521.957C872.57 523.673 871.976 523.885 870.629 524.989L869.285 524.923C866.248 523.264 815.179 462.306 811.68 456.477C811.942 454.988 812.847 454.35 813.843 453.239Z"/><path fill="#107582" transform="scale(0.0625 0.0625)" d="M835.018 448.143C835.264 448.248 835.517 448.341 835.758 448.458C836.612 448.872 837.281 449.386 837.919 450.086C840.854 453.309 843.343 457.01 846.151 460.357C850 464.946 870.161 486.506 871.484 490.664C871.104 492.453 870.527 492.819 869.291 494.12C868.058 493.721 867.173 493.386 866.228 492.476C860.569 487.03 855.487 480.37 850.298 474.419C844.695 467.994 837.691 461.164 833.079 454.043C832.559 453.239 832.468 452.7 832.447 451.767C832.85 450.098 833.837 449.292 835.018 448.143Z"/><path fill="#F5F5F4" transform="scale(0.0625 0.0625)" d="M605.749 396.531C605.784 398.155 585.676 430.101 583.121 434.531C576.654 445.747 570.178 457.399 564.661 469.103C538.755 523.39 520.336 580.942 509.907 640.182C507.957 650.875 495.775 729.742 501.143 735.908C504.758 740.06 520.62 736.379 528.472 738.302C534.719 739.832 540.966 742.395 545.735 746.819C548.922 749.775 551.752 755.363 555.891 756.854C559.791 758.26 566.32 756.094 570.507 755.716C578.219 754.996 585.981 756.368 592.979 759.687C595.42 760.839 597.763 762.21 599.776 764.026C602.547 766.527 605.809 772.95 609.358 773.854C613.023 774.788 627.043 770.777 631.761 770.344C643.729 769.33 655.782 770.32 667.424 773.272C678.183 775.975 688.174 781.125 696.617 788.322C701.14 792.247 706.313 801.188 711.986 802.847C717.16 804.359 724.387 802.416 729.79 802.272C736.587 802.091 743.788 802.569 750.494 803.677C773.411 807.468 795.671 820.776 809.076 839.919C809.201 840.097 809.322 840.278 809.445 840.458C792.065 854.884 774.682 869.106 755.774 881.534C685.147 927.979 602.884 953.632 518.375 955.565C402.047 956.134 295.701 913.526 210.06 835.251C212.425 832.185 214.916 829.155 217.58 826.344C234.089 808.921 259.282 801.87 282.721 801.543C288.043 801.469 293.515 803.398 298.675 803.041C303.212 802.728 306.327 797.036 309.097 794.032C326.94 774.691 356.249 769.168 381.447 771.619C388.186 772.274 395.764 775.222 402.466 774.5C405.407 774.183 412.973 765.438 416.248 763.39C420.852 760.509 426.211 758.682 431.492 757.52C441.058 755.415 452.102 755.045 461.585 757.796C464.827 758.737 468.409 760.857 471.808 760.592C474.529 760.38 476.86 758.783 477.718 756.139C479.892 749.438 479.259 740.202 479.594 733.128C479.923 725.815 480.407 718.509 481.045 711.216C482.646 693.371 485.683 675.373 488.935 657.754C504.887 575.808 536.965 497.849 583.304 428.406C590.332 417.905 596.978 406.591 605.297 397.043L605.749 396.531Z"/><path fill="#107582" transform="scale(0.0625 0.0625)" d="M718.649 833.625C723.85 832.135 729.281 835.11 730.826 840.295C732.37 845.481 729.452 850.943 724.283 852.541C720.891 853.59 717.197 852.737 714.609 850.305C712.021 847.874 710.939 844.24 711.775 840.789C712.611 837.339 715.236 834.603 718.649 833.625Z"/><path fill="#107582" transform="scale(0.0625 0.0625)" d="M685.1 807.834C688.549 807.013 692.172 808.116 694.58 810.717C696.989 813.319 697.808 817.017 696.724 820.392C695.64 823.768 692.821 826.297 689.348 827.011C684.092 828.09 678.943 824.752 677.783 819.514C676.622 814.275 679.88 809.075 685.1 807.834Z"/><path fill="#107582" transform="scale(0.0625 0.0625)" d="M441.731 797.333C446.971 796.351 452.035 799.734 453.135 804.95C454.234 810.166 450.966 815.306 445.776 816.522C443.837 816.977 441.805 816.83 439.951 816.102C435.881 814.503 433.361 810.402 433.774 806.047C434.187 801.693 437.432 798.139 441.731 797.333Z"/><path fill="#107582" transform="scale(0.0625 0.0625)" d="M564.773 799.421C569.923 797.93 575.31 800.883 576.824 806.026C578.339 811.17 575.411 816.57 570.275 818.108C565.105 819.657 559.661 816.706 558.136 811.529C556.612 806.351 559.588 800.921 564.773 799.421Z"/><path fill="#107582" transform="scale(0.0625 0.0625)" d="M414.207 849.977C419.523 849.502 424.218 853.426 424.695 858.742C425.171 864.058 421.248 868.755 415.932 869.232C410.614 869.71 405.917 865.785 405.44 860.468C404.964 855.15 408.889 850.453 414.207 849.977Z"/><path fill="#107582" transform="scale(0.0625 0.0625)" d="M339.395 857.887C344.604 857.013 349.544 860.5 350.465 865.701C351.386 870.902 347.944 875.874 342.751 876.842C337.492 877.823 332.442 874.326 331.509 869.058C330.576 863.79 334.118 858.772 339.395 857.887Z"/><path fill="#107582" transform="scale(0.0625 0.0625)" d="M504.356 791.337C507.667 790.334 511.261 791.19 513.765 793.577C516.268 795.965 517.294 799.515 516.448 802.87C515.603 806.225 513.018 808.865 509.682 809.782C504.616 811.173 499.373 808.235 497.916 803.188C496.459 798.141 499.328 792.86 504.356 791.337Z"/><path fill="#107582" transform="scale(0.0625 0.0625)" d="M656.426 867.477C659.681 866.278 663.331 866.929 665.971 869.18C668.611 871.431 669.83 874.932 669.159 878.336C668.488 881.74 666.032 884.517 662.736 885.598C657.764 887.229 652.403 884.577 650.683 879.636C648.962 874.695 651.517 869.287 656.426 867.477Z"/><path fill="#107582" transform="scale(0.0625 0.0625)" d="M591.198 850.735C596.204 849.074 601.609 851.783 603.274 856.787C604.94 861.792 602.237 867.199 597.235 868.87C592.225 870.544 586.807 867.836 585.139 862.824C583.47 857.812 586.184 852.397 591.198 850.735Z"/><path fill="#107582" transform="scale(0.0625 0.0625)" d="M367.21 807.914C372.127 806.208 377.502 808.761 379.288 813.648C381.074 818.535 378.612 823.952 373.755 825.819C370.54 827.054 366.91 826.461 364.257 824.265C361.604 822.07 360.341 818.614 360.953 815.226C361.565 811.837 363.957 809.042 367.21 807.914Z"/><path fill="#107582" transform="scale(0.0625 0.0625)" d="M637.081 812.586C639.073 812.413 641.089 812.167 643.013 812.855C645.583 813.774 647.834 815.73 649.005 818.205C649.987 820.278 650.2 822.782 649.381 824.947C648.205 828.05 645.855 829.351 642.933 830.544C641.301 830.832 639.729 831.102 638.077 830.807C635.518 830.35 633.216 828.975 631.816 826.758C630.387 824.497 630.128 821.764 630.844 819.214C631.813 815.763 634.084 814.257 637.081 812.586Z"/><path fill="#107582" transform="scale(0.0625 0.0625)" d="M477.313 870.263C482.446 868.975 487.645 872.119 488.889 877.263C490.133 882.406 486.944 887.578 481.79 888.777C476.698 889.962 471.603 886.821 470.374 881.74C469.145 876.658 472.242 871.536 477.313 870.263Z"/><path fill="#107582" transform="scale(0.0625 0.0625)" d="M289.615 834.752C292.903 833.757 296.471 834.617 298.944 837.001C301.417 839.384 302.409 842.918 301.536 846.24C300.663 849.562 298.062 852.152 294.737 853.012C289.739 854.304 284.625 851.362 283.231 846.391C281.837 841.42 284.674 836.248 289.615 834.752Z"/><path fill="#107582" transform="scale(0.0625 0.0625)" d="M526.863 844.336C531.473 843.051 536.314 845.428 538.116 849.863C538.937 851.884 539.031 854.128 538.381 856.211C537.357 859.493 534.627 861.956 531.258 862.637C526.29 863.641 521.418 860.534 520.235 855.606C519.051 850.678 521.981 845.697 526.863 844.336Z"/><path fill="#F5F5F4" transform="scale(0.0625 0.0625)" d="M383.533 451.563C384.005 451.558 384.49 451.437 384.949 451.549C387.918 452.271 413.883 470.722 417.421 473.591C408.733 477.34 399.152 479.644 390.088 482.385C374.208 487.115 358.352 491.929 342.522 496.826C333.105 499.748 323.533 502.465 314.373 506.13C313.371 506.563 311.869 507.369 310.782 507.403C304.943 507.587 284.727 488.611 280.394 483.825C291.099 479.71 302.394 476.547 313.332 473.041C336.636 465.568 360.038 458.408 383.533 451.563Z"/><path fill="#F5F5F4" transform="scale(0.0625 0.0625)" d="M645.839 581.264C658.866 583.993 671.816 588.522 684.657 592.086C688.328 601.961 693.601 611.754 698.079 621.315C708.794 644.187 719.946 666.785 729.947 689.993C717.592 689.782 705.356 687.544 693.726 683.368C678.36 649.057 662.395 615.017 645.839 581.264Z"/><path fill="#F5F5F4" transform="scale(0.0625 0.0625)" d="M418.663 264.64C430.582 267.273 443.38 267.85 455.505 269.55C479.265 272.879 503.26 277.1 527.167 278.962C532.499 289.9 541.41 301.425 545.877 312.134C508.79 306.296 471.466 301.967 434.354 296.334C428.6 288.004 419.904 274.806 418.663 264.64Z"/><path fill="#F5F5F4" transform="scale(0.0625 0.0625)" d="M423.633 480.084C429.768 481.59 447.393 498.429 452.87 503.423C433.545 511.733 399.539 521.231 378.976 522.775C368.626 523.552 357.815 522.893 347.548 521.442C336.495 520.263 326.39 516.354 316.225 512.098C325.263 508.382 335.26 505.855 344.637 503.089C359.967 498.567 375.241 494.115 390.664 489.914C401.73 486.9 412.521 482.93 423.633 480.084Z"/><path fill="#F5F5F4" transform="scale(0.0625 0.0625)" d="M337.016 425.02C345.734 427.51 368.326 441.557 377.139 446.82C361.125 451.023 345.314 456.176 329.523 461.147C317.374 464.972 305.16 468.523 293.121 472.697C287.478 474.51 281.862 476.403 276.273 478.377C269.962 469.246 264.341 459.642 258.789 450.037C271.987 446.64 284.586 442.15 297.521 437.938C310.686 433.651 323.967 429.647 337.016 425.02Z"/><path fill="#F5F5F4" transform="scale(0.0625 0.0625)" d="M410.933 227.497C423.154 227.102 444.503 231.63 457.415 233.514C471.762 235.608 486.52 236.779 500.723 239.587C507.929 249.526 516.867 262.12 522.749 272.719C509.046 271.265 495.371 268.731 481.745 266.673L416.011 257.377C413.9 247.582 411.432 237.523 410.933 227.497Z"/><path fill="#F5F5F4" transform="scale(0.0625 0.0625)" d="M692.995 594.614C705.931 599.54 719.561 602.446 732.392 607.677C742.687 627.119 752.415 646.856 761.564 666.863C764.134 672.349 768.244 678.784 769.644 684.564C768.831 685.713 768.272 685.579 766.932 685.878C757.105 687.816 747.309 689.022 737.351 690.082C734.068 677.832 722.638 656.754 716.751 644.484C708.794 627.901 701.521 610.904 692.995 594.614Z"/><path fill="#F5F5F4" transform="scale(0.0625 0.0625)" d="M601.805 570.672C606.174 572.235 610.966 572.972 615.493 573.983C622.742 575.529 629.942 577.293 637.085 579.271C646.045 595.576 653.541 614.743 661.477 631.794C668.801 647.528 677.459 663.011 683.753 679.177C682.153 678.583 680.592 677.888 679.082 677.094C636.734 655.218 615.69 614.103 601.805 570.672Z"/><path fill="#F5F5F4" transform="scale(0.0625 0.0625)" d="M440.342 304.523C448.837 304.327 458.056 306.192 466.498 307.273C485.997 309.78 505.459 312.563 524.878 315.623C532.746 316.808 541.453 318.86 549.362 318.896C554.49 328.326 559.199 339.471 562.131 349.784C530.164 348.256 494.555 341.27 466.848 324.644C457.212 318.862 448.782 311.889 440.342 304.523Z"/><path fill="#F5F5F4" transform="scale(0.0625 0.0625)" d="M410.906 189.389C430.185 191.609 449.398 194.808 468.629 197.46C477.606 208.507 486.96 220.371 494.68 232.311C466.943 227.306 438.788 224.325 410.912 220.047C411.101 209.815 410.403 199.64 410.906 189.389Z"/><path fill="#F5F5F4" transform="scale(0.0625 0.0625)" d="M742.429 611.926C754.806 615.211 772.82 621.307 783.954 627.546C792.274 642.305 799.54 658.166 806.631 673.572L799.376 675.975C791.848 678.416 784.332 680.819 776.7 682.917C771.956 673.298 767.728 663.383 763.192 653.659C756.523 639.624 749.601 625.711 742.429 611.926Z"/><path fill="#F5F5F4" transform="scale(0.0625 0.0625)" d="M286.489 403.033C291.864 403.562 321.963 417.74 327.774 421.416L276.493 437.957C269.582 440.085 262.683 442.251 255.795 444.453C251.228 435.253 246.74 426.015 242.331 416.74C257.087 412.216 271.863 408.023 286.489 403.033Z"/><path fill="#F5F5F4" transform="scale(0.0625 0.0625)" d="M330.922 365.307C339.418 365.829 347.795 367.566 355.798 370.465C357.712 374.903 359.131 379.738 360.735 384.309C365.625 398.238 369.863 412.298 374.379 426.347C364.907 422.196 356.022 416.477 346.777 411.829C342.182 396.297 336.951 380.334 330.922 365.307Z"/><path fill="#F5F5F4" transform="scale(0.0625 0.0625)" d="M536.897 193.789C543.693 201.101 549.6 209.732 553.757 218.81C550.55 238.466 546.559 258.484 544.78 278.294C544.592 278.47 544.31 278.507 544.068 278.595C539.943 269.654 534.717 261.553 529.381 253.311C529.489 246.432 530.651 239.445 531.525 232.621L536.897 193.789Z"/><path fill="#F5F5F4" transform="scale(0.0625 0.0625)" d="M413.663 136.763C418.946 140.215 460.708 187.251 461.583 190.172L460.852 190.318C444.363 187.923 428.127 184.439 411.548 182.428C411.855 167.198 413.56 152.023 413.663 136.763Z"/><path fill="#F5F5F4" transform="scale(0.0625 0.0625)" d="M734.035 545.45C742.01 546.091 751.402 550.429 758.188 554.517C738.014 561.15 719.701 573.118 699.891 580.671C691.318 578.088 682.807 575.093 674.029 573.288C694.069 564.04 713.844 554.418 734.035 545.45Z"/><path fill="#F5F5F4" transform="scale(0.0625 0.0625)" d="M363.323 373.425C371.182 376.424 378.85 379.476 386.22 383.58C389.789 391.838 392.059 400.606 394.63 409.206C398.345 421.631 402.13 434.098 406.601 446.273C401.424 443.967 386.972 435.231 383.561 430.971C380.193 426.764 377.268 413.217 375.344 407.32C371.656 396.011 368.263 384.248 363.323 373.425Z"/><path fill="#F5F5F4" transform="scale(0.0625 0.0625)" d="M767.644 557.99C772.412 559.22 783.585 567.716 787.965 570.678C781.044 573.944 773.464 576.231 766.38 579.226C757.802 582.853 745.071 589.264 736.639 591.794C735.399 592.166 734.602 591.991 733.381 591.641C725.755 589.081 718.223 586.33 710.44 584.267C728.92 574.761 748.17 565.259 767.644 557.99Z"/><path fill="#F5F5F4" transform="scale(0.0625 0.0625)" d="M395.568 389.32C395.722 389.394 395.879 389.461 396.029 389.542C402.58 393.055 415.603 403.717 419.383 409.676C423.348 415.926 428.762 439.672 431.167 448.256C433.223 455.615 435.463 462.921 437.885 470.167C435.939 469.112 433.947 467.136 432.154 465.782C426.36 461.406 420.5 457.11 414.888 452.499C407.847 431.703 402.19 410.279 395.568 389.32Z"/><path fill="#F5F5F4" transform="scale(0.0625 0.0625)" d="M510.086 170.688C517.044 173.568 526.019 181.874 531.521 187.177C529.307 204.615 526.379 221.926 524.341 239.409L523.484 245.475C519.531 237.794 513.637 230.636 508.559 223.674C509.994 206.058 510.049 188.349 510.086 170.688Z"/><path fill="#F5F5F4" transform="scale(0.0625 0.0625)" d="M695.882 539.612C705.124 539.251 715.192 540.405 724.264 542.173C716.621 546.594 707.735 549.823 699.648 553.4C688.451 558.383 677.352 563.583 666.358 568.998C660.376 571.583 644.859 565.347 638.447 563.218C649.52 556.281 683.139 542.359 695.882 539.612Z"/><path fill="#F5F5F4" transform="scale(0.0625 0.0625)" d="M477.737 152.255C487.031 155.458 495.196 160.324 503.435 165.598C503.996 182.115 504.161 199.111 503.034 215.601C502.624 215.627 502.715 215.682 502.327 215.404C499.687 213.511 496.776 208.329 494.701 205.652C491.351 201.33 487.276 196.913 484.631 192.134C480.507 184.681 478.955 161.674 477.737 152.255Z"/><path fill="#F5F5F4" transform="scale(0.0625 0.0625)" d="M558.72 230.235C559.274 230.541 559.584 230.82 559.919 231.364C564.214 238.342 571.196 259.623 570.984 267.248C570.871 271.277 569.154 275.929 568.368 279.939C566.453 289.714 564.951 299.557 562.885 309.305C559.714 307.28 552.006 290.895 549.705 286.541C553.701 268.02 556.022 248.978 558.72 230.235Z"/><path fill="#F5F5F4" transform="scale(0.0625 0.0625)" d="M298.887 362.04C307.184 362.437 315.293 363.165 323.515 364.347C329.081 378.32 334.194 392.954 337.712 407.588C328.591 404.439 319.366 399.97 310.869 395.418C306.019 384.867 302.684 373.041 298.887 362.04Z"/><path fill="#F5F5F4" transform="scale(0.0625 0.0625)" d="M792.609 575.416C796.506 575.802 805.328 586.495 808.184 589.552C799.522 592.722 781.118 600.62 774.076 606.357L764.638 603C758.306 600.447 752.115 598.224 745.463 596.643C754.317 591.925 763.664 587.645 772.929 583.795C779.489 581.069 786.32 578.728 792.609 575.416Z"/><path fill="#F5F5F4" transform="scale(0.0625 0.0625)" d="M793.821 631.674C800.017 633.087 806.448 636.698 812.252 639.282C824.208 644.606 836.136 649.903 847.946 655.548C844.431 657.569 840.868 659.249 837.13 660.813C829.148 664.398 821.036 667.685 812.809 670.666C807.186 657.336 800.848 644.32 793.821 631.674Z"/><path fill="#F5F5F4" transform="scale(0.0625 0.0625)" d="M281.207 362.21C284.314 361.854 287.6 361.948 290.733 361.847C294.453 371.516 298.064 381.226 301.565 390.976C292.47 387.085 283.323 383.317 274.127 379.674C263.602 375.057 252.452 371.967 241.941 367.29C254.357 363.973 268.403 362.93 281.207 362.21Z"/><path fill="#F5F5F4" transform="scale(0.0625 0.0625)" d="M226.785 378.583C231.771 379.704 236.867 382.044 241.659 383.869C253.999 388.566 266.092 393.635 278.201 398.899L269.384 401.563C259.364 404.589 249.38 407.736 239.436 411.003C234.71 400.58 230.918 389.282 226.785 378.583Z"/><path fill="#F5F5F4" transform="scale(0.0625 0.0625)" d="M812.668 594.401C816.881 595.752 827.303 610.841 830.541 615.039C824.837 617.258 819.266 619.356 813.97 622.46C811.07 621.509 808.22 620.417 805.361 619.352C797.541 616.263 789.612 613.247 782.188 609.276C792.203 604.025 802.367 599.064 812.668 594.401Z"/><path fill="#F5F5F4" transform="scale(0.0625 0.0625)" d="M430.86 132.285C444.553 135.988 458.216 142.036 471.094 147.921C472.161 159.165 473.769 170.111 475.738 181.225C471.193 177.86 464.367 168.379 460.273 163.678C450.867 152.88 441.246 142.151 430.86 132.285Z"/><path fill="#F5F5F4" transform="scale(0.0625 0.0625)" d="M430.551 422.393C433.574 424.783 435.993 430.562 437.807 433.997C447.665 452.668 453.769 466.854 459.405 487.166C454.846 484.542 450.1 480.442 446.156 476.938C441.483 458.627 434.881 440.779 430.551 422.393Z"/><path fill="#F5F5F4" transform="scale(0.0625 0.0625)" d="M668.049 540.704L669.034 540.793C665.119 544.361 653.218 548.035 648.039 550.48C641.038 553.786 634.231 557.482 627.224 560.776C623.808 559.989 620.372 559.34 616.927 558.695L611.987 557.557C629.631 548.923 648.568 543.23 668.049 540.704Z"/><path fill="#F5F5F4" transform="scale(0.0625 0.0625)" d="M835.04 620.544C840.193 626.501 844.617 633.2 849.379 639.484L840.441 635.025C834.133 631.956 827.822 629.022 821.163 626.779C825.699 624.53 830.406 622.584 835.04 620.544Z"/><path fill="#F5F5F4" transform="scale(0.0625 0.0625)" d="M573.265 289.371C575.59 293.985 574.468 306.305 574.073 311.761C573.896 314.198 573.619 326.027 572.18 327.273L571.467 325.82C570.018 322.731 568.403 319.702 566.866 316.655C569.455 307.625 571.495 298.595 573.265 289.371Z"/></svg>