<?xml version="1.0" encoding="utf-8" ?><svg xmlns="http://www.w3.org/2000/svg" xmlns:xlink="http://www.w3.org/1999/xlink" width="64" height="64" viewBox="0 0 64 64"><path fill="#17183B" transform="scale(0.0625 0.0625)" d="M487.898 334.057C500.253 332.736 518.433 334.991 531.202 335.639C537.88 335.977 545.3 335.277 551.822 336.531C555.563 337.25 558.083 338.984 560.704 341.71C566.106 347.328 570.214 355.147 574.432 361.708C581.822 373.442 589.429 385.039 597.248 396.491C604.544 392.756 641.607 374.626 647.127 373.842C648.877 373.593 650.13 374.185 651.501 375.199C657.562 379.679 662.896 388.663 667.165 394.858C684.947 420.666 699.739 446.902 709.537 476.791C712.129 484.698 714.745 492.902 715.873 501.163C712.674 508.309 708.364 515.085 704.525 521.911C710.184 532.597 717.392 542.547 723.17 553.236C728.311 562.749 745.437 595.099 746.438 604.299C746.644 606.196 745.596 608.741 745.055 610.559C747.576 616.27 759.709 631.413 764.164 636.101L766.213 635.104C781.79 627.611 799.731 623.823 816.498 629.844C821.678 631.704 827.053 634.722 830.791 638.831C836.63 645.25 841.588 653.149 846.714 660.165L874.138 697.403L898.412 730.133C903.037 736.329 909.317 743.328 912.575 750.324C918.221 762.452 915.88 778.008 911.344 790.107C903.896 809.971 888.534 824.706 869.334 833.312C856.322 839.144 839.342 842.404 825.623 837.107C821.011 835.326 817.202 832.525 813.751 829.016C802.797 817.876 793.824 803.963 784.11 791.715L754.504 754.026C748.42 746.329 741.853 738.794 736.295 730.718C732.534 725.254 729.043 719.321 726.408 713.226C719.7 697.706 722.78 681.715 728.813 666.582C726.816 664.634 724.925 662.773 723.282 660.505C705.923 667.796 688.399 675.944 671.566 684.374C660.964 689.683 650.718 695.659 639.871 700.471C646.408 712.778 654.845 724.585 662.414 736.277C665.192 740.569 669.211 745.543 670.936 750.364C671.331 751.468 671.284 752.592 671.048 753.724C669.998 758.758 652.542 776.842 648.16 781.786C642.822 787.809 637.252 793.6 631.86 799.57C626.245 805.787 619.973 814.781 612.904 819.18C607.592 822.485 563.996 818.081 554.362 817.482C549.666 817.19 542.655 815.893 538.211 817.439C531.335 819.832 522.579 828.179 516.565 832.607C508.692 838.382 500.74 844.05 492.713 849.61C490.757 864.462 489.381 879.409 486.861 894.181C485.678 900.304 485.961 906.917 484.116 912.885C482.237 918.965 474.121 922.212 468.896 925.032C458.807 930.476 397.537 960.505 389.615 956.382C387.998 955.541 386.54 953.037 385.624 951.491C382.333 945.938 379.782 939.73 376.888 933.94C370.832 921.98 364.886 909.963 359.052 897.893C351.377 899.219 343.814 900.278 336.062 900.996C328.089 912.663 319.039 923.796 310.382 934.967C305.234 941.608 300.236 948.925 294.674 955.191C293.994 955.957 293.175 956.476 292.239 956.882C287.912 958.76 282.113 958.985 277.405 959.428C256.861 961.364 219.54 961.392 200.47 953.589C197.325 948.887 195.044 943.218 192.579 938.122C184.922 922.299 178.421 905.843 170.017 890.398C157.407 893.222 143.726 900.237 131.552 902.183C129.418 902.524 127.668 902.67 125.881 901.249C122.333 898.429 116.4 891.031 113.123 887.29C91.0245 862.057 72.8567 835.502 59.5055 804.657C57.5968 800.247 54.3991 794.46 54.1511 789.647C54.0806 788.28 54.3551 787.382 55.1638 786.293C57.5497 783.08 61.1204 780.273 64.051 777.553C71.3814 770.75 79.1489 764.12 86.047 756.899C82.0774 748.781 77.4221 740.913 73.128 732.955C64.943 717.787 56.9079 702.405 49.8398 686.683C50.4978 678.32 58.2124 642.667 61.3078 636.049C62.1782 634.188 63.7852 633.509 65.5764 632.724C72.2049 629.82 79.8056 628.127 86.7019 625.802C106.775 619.036 127.104 612.658 146.934 605.215C150.402 597.409 154.847 590.073 159.128 582.698C155.536 575.349 131.307 532.421 132.305 527.743C133.934 520.113 168.037 486.721 175.716 480.431C177.173 479.238 178.659 478.001 180.592 477.77C186.91 477.013 194.751 478.756 201.116 479.475C216.256 481.186 231.392 483.231 246.552 484.698C258.355 473.316 270.911 463.887 285.203 455.843C286.851 443.855 288.35 431.848 289.701 419.823C290.389 413.176 290.996 396.444 293.105 390.758C293.837 388.783 297.005 386.95 298.79 385.901C308.845 379.991 320.226 375.339 330.746 370.272C340.105 365.765 349.464 360.415 359.091 356.587C360.594 355.99 363.331 354.786 364.927 355.049C367.423 355.459 402.747 389.723 408.14 394.717C412.214 398.489 417.304 404.503 422.393 406.714C424.176 406.306 425.458 405.104 426.752 403.871C432.334 398.551 437.254 392.095 442.269 386.235L472.087 351.222C476.843 345.644 481.583 338.898 487.377 334.446C487.549 334.314 487.724 334.187 487.898 334.057ZM437.914 415.809C423.992 417.98 410.305 420.502 396.649 423.992C391.4 425.334 386.193 427.822 380.969 428.883C379.697 429.141 378.19 429.32 377.094 428.523C370.766 423.919 361.727 377.087 355.277 375.305C347.876 376.079 314.204 394.352 305.963 399.05C305.495 411.277 303.564 423.652 302.315 435.836C301.402 444.735 301.275 454.323 299.29 463.038C291.244 469.435 281.609 473.859 273.337 480.048C268.456 483.699 263.845 487.729 259.301 491.786C256.383 494.392 253.521 497.496 250.169 499.513C228.295 496.472 206.339 494.054 184.328 492.26C171.892 503.598 159.499 515.757 148.542 528.524C154.252 534.025 185.796 563.045 187.353 567.407C187.048 572.175 181.632 577.449 178.77 581.198C173.963 587.495 169.944 594.852 166.198 601.829C163.859 606.184 161.655 612.867 158.165 616.276C156.795 617.613 154.28 618.414 152.478 619.065C135.549 625.176 118.182 630.34 101.055 635.877C91.989 638.808 82.9604 642.597 73.7095 644.834C70.9762 656.024 67.4146 667.185 65.7779 678.599C75.2284 678.453 133.025 675.91 137.926 678.552C139.499 680.424 139.459 682.193 139.25 684.536C138.96 687.794 138.009 691.004 137.653 694.262C137.067 699.624 137.469 705.781 138.103 711.128C138.506 714.528 140.807 722.294 139.537 725.227C137.379 730.211 103.667 759.914 97.9882 765.214C88.5111 774.061 78.7962 783.057 69.8546 792.442C73.8674 800.975 77.5139 810.48 82.3932 818.503C101.8 806.421 121.986 795.252 141.827 783.891C149.088 779.734 160.363 771.492 168.09 769.58C171.835 771.207 174.547 777.078 177.48 779.965C183.987 786.37 192.859 791.98 201.332 795.288C204.152 796.388 212.106 798.555 213.259 801.744C215.116 806.88 191.435 868.573 188.659 880.093C203.707 880.191 218.926 879.49 233.938 878.486C241.9 865.501 250.779 852.364 260.152 840.359C265.805 832.256 271.545 824.214 277.371 816.235C280.162 812.388 282.857 808.148 286.022 804.605C299.847 803.347 311.581 804.1 325.798 801.26C330.235 800.374 345.377 795.255 348.57 796.634C350.244 798.377 351.209 800.138 352.018 802.421C353.806 807.471 354.81 813.029 356.082 818.243C358.404 827.759 361 837.196 363.406 846.689C365.011 853.024 366.278 859.688 368.498 865.823C378.974 862.561 389.076 858.161 399.219 854.007C407.45 850.636 415.749 847.491 424 844.187C427.302 826.54 430.206 808.758 433.238 791.058C434.862 781.577 436.126 771.903 438.437 762.559C442.794 757.837 450.487 754.405 455.951 750.848C463.408 745.995 470.862 740.841 477.819 735.296C482.371 731.669 489.66 723.551 495.446 722.729C497.731 722.405 562.517 734.353 569.144 736.272C573.979 732.155 578.291 727.125 582.696 722.54L606.783 697.441L606.291 697.013C591.487 684.306 574.303 674.735 559.211 662.626C558.042 661.688 555.367 659.589 555.114 658.059C554.536 654.569 559.962 649.053 561.805 646.235C569.084 635.102 575.375 622.885 580.663 610.694C583.338 604.529 585.559 597.98 588.482 591.953C594.444 588.622 602.683 587.298 609.282 585.589C624.535 581.572 639.856 577.815 655.238 574.321C663.906 572.317 673.388 570.964 681.685 567.889C682.991 561.043 684.365 554.21 685.807 547.392C687.025 541.812 688.648 536.155 689.193 530.474C674.731 529.161 608.144 534.307 601.933 531.116C599.003 526.709 600.216 513.778 599.003 507.927C597.662 501.456 596.03 494.954 593.856 488.715C592.259 484.135 590.09 479.665 589.056 474.916C589.946 473.07 591.346 471.648 592.836 470.267C596.861 466.537 601.393 463.188 605.652 459.718L637.069 434.586C645.258 428.062 653.99 419.54 662.86 414.245C658.808 406.694 651.2 394.75 645.078 388.861C623.498 397.728 602.428 408.441 581.657 419.049C573.916 423.003 561.816 430.269 554.268 433.157C547.074 429.674 540.007 425.624 532.538 422.77C526.706 420.541 520.098 419.371 514.483 416.829C513.197 416.247 512.605 415.787 512.124 414.46C511.661 413.181 511.686 411.83 512.128 410.557C514.057 405.008 517.336 399.574 520.004 394.347C525.474 383.87 530.777 373.306 535.911 362.66C538.167 357.975 540.69 353.263 542.505 348.39C531.676 348.052 520.844 347.798 510.011 347.627C504.767 347.52 498.644 348.03 493.543 346.951L469.674 376.145C458.849 389.188 447.851 402.056 437.914 415.809ZM703.405 610.198C709.847 620.184 764.579 690.011 772.244 693.283C774.637 694.304 777.335 693.335 779.542 692.267C783.145 690.524 787.524 687.55 788.829 683.634C788.664 681.797 787.407 680.322 786.346 678.88C778.874 668.723 770.216 659.228 762.191 649.486C751.507 636.518 741.187 623.261 730.385 610.389C726.592 605.869 722.404 601.625 718.746 597.009L718.422 596.595C715.739 598.194 713.352 599.916 710.933 601.889C718.822 610.129 725.651 619.446 732.589 628.483L730.997 630.158L729.343 630.162L728.82 629.739L727.524 630.582L726.729 630.269L727.202 627.983L726.644 627.66L725.685 629.076L724.959 629.042L724.327 628.095L725.14 626.463C718.387 620.27 712.496 613.096 706.466 606.21L703.405 610.198ZM441.528 849.084C447.747 857.614 453.691 866.342 459.349 875.254C462.697 880.431 465.901 885.906 469.622 890.82L471.026 892.319C472.438 891.237 478.186 847.444 478.967 842.256C476.665 835.887 456.903 796.735 453.804 793.81C449.649 812.2 445.196 830.592 441.528 849.084ZM301.374 834.591C303.143 839.672 306.501 844.532 309.203 849.18C314.846 858.876 320.598 868.508 326.457 878.075C328.007 880.754 329.53 883.449 331.026 886.159C339.895 886.004 348.156 885.25 356.794 883.016C353.644 870.256 350.322 857.538 346.83 844.867C345.586 840.214 344.825 834.439 342.72 830.169C342.109 830.16 341.473 830.104 340.867 830.187C333.696 831.372 326.484 832.303 319.247 832.978C313.329 833.492 307.215 833.512 301.374 834.591ZM871.456 818.976C864.111 808.658 855.384 798.998 847.564 788.996C842.873 782.996 802.965 729.823 802.057 729.389C798.823 731.296 795.47 732.65 791.983 734.024C803.807 750.585 816.677 766.357 828.933 782.592C832.895 787.84 856.415 820.378 859.818 822.917L860.679 822.974L871.456 818.976ZM541.913 412.804C547.134 414.574 552.234 416.938 557.483 418.548L562.636 414.804C569.946 410.844 577.371 407.013 584.54 402.807C579.897 396.503 575.493 390.025 571.339 383.387C568.198 378.437 565.038 371.797 560.775 367.755C557.067 377.614 553.098 387.373 548.871 397.021C546.592 402.273 543.919 407.452 541.913 412.804ZM111.632 733.897C115.558 730.239 119.39 726.48 123.122 722.625C122.097 718.075 121.608 713.455 121.399 708.797C106.282 706.8 90.2856 704.489 75.0309 704.427C78.4826 712.728 83.1607 720.757 87.406 728.688C90.6233 734.698 93.6383 740.976 97.0965 746.842C102.323 743.698 107.168 738.128 111.632 733.897ZM841.793 828.144C828.123 811.096 814.657 793.887 801.396 776.519C794.564 767.413 787.59 758.414 780.479 749.524C777.527 745.778 774.759 741.636 771.561 738.117C766.63 737.846 761.577 737.7 756.795 736.356C763.201 744.97 769.433 753.663 776.055 762.119C783.834 772.052 791.98 781.683 799.742 791.644C805.851 799.593 812.06 807.464 818.369 815.255C821.268 818.821 824.11 822.749 827.378 825.965C832.103 827.218 836.982 827.375 841.793 828.144ZM726.134 590.748C723.917 584.498 705.357 548.708 701.447 545.235C698.804 557.3 696.942 569.428 693.809 581.4C696.663 585.676 699.523 589.913 702.616 594.023C706.562 591.442 710.137 589.193 714.728 587.912C719.196 587.46 722.231 588.847 726.134 590.748ZM230.172 892.75C216.264 893.521 202.347 894.132 188.425 894.583C191.922 906.725 203.927 930.601 210.919 941.903C219.433 943.59 227.891 944.511 236.527 945.298C249.566 946.683 263.696 946.714 276.677 944.821C272.412 938.088 267.232 931.807 262.534 925.356L239.028 892.508C236.079 892.585 233.118 892.611 230.172 892.75ZM169.163 802.092C167.038 803.169 164.852 804.187 162.786 805.372C169.956 814.772 180.097 824.429 189.746 831.277L190.627 831.394C192.592 828.43 193.418 824.047 194.727 820.7C187.56 817.197 181.279 813.412 175.301 808.067C173.203 806.192 171.344 803.808 169.163 802.092ZM622.711 480.28C627.378 491.881 633.325 506.334 638.698 517.455C642.425 517.484 646.152 517.412 649.875 517.238C662.418 517.013 674.965 516.68 687.508 517.047C691.85 510.928 696.768 505.161 700.839 498.871C697.527 482.047 683.557 443.964 672.825 431.076C668.21 434.571 664.112 438.712 659.918 442.689C651.729 450.311 643.79 458.197 636.114 466.335C631.693 470.964 626.899 475.451 622.711 480.28ZM602.535 627.271C597.09 636.815 592.672 647.342 588.149 657.368C599.053 668.291 609.999 678.868 621.491 689.168L625.93 692.753C627.672 691.245 629.453 689.765 631.142 688.198C627.179 678.63 622.511 669.306 618.11 659.928C612.983 649.005 608.065 638.001 602.535 627.271ZM624.78 518.774L630.696 518.439C628.646 513.726 626.309 506.76 622.943 502.882C623.341 508.205 624.396 513.451 624.78 518.774ZM295.37 839.927C286.568 846.96 277.881 857.626 270.119 865.97C264.143 872.393 257.425 878.732 252.119 885.69C262.794 901.704 275.376 916.417 285.914 932.562L289.705 937.574C302.164 923.06 313.855 907.111 325.162 891.671C323.626 888.022 296.548 840.918 295.37 839.927ZM861.848 793.659C862.558 795.468 860.956 796.397 862.235 797.718C862.986 797.534 863.734 797.338 864.479 797.13C865.247 798.505 863.953 799.485 864.82 800.891C866.162 800.652 866.116 800.601 866.975 799.526C867.019 799.084 867.196 798.635 867.106 798.2C866.745 796.434 843.608 766.346 840.523 762.573C837.731 759.158 834.656 755.338 831.062 752.734C831.106 752.879 831.152 753.024 831.194 753.17C831.819 755.325 831.386 757.34 832.211 759.404L832.612 759.362L833.166 757.705L833.847 757.652C834.297 758.449 834.423 758.483 834.409 759.443C834.389 760.776 834.152 762.972 835.017 764.05C835.212 764.293 835.476 764.473 835.705 764.684C836.348 764.33 836.86 764.019 837.442 763.592C838.126 764.385 837.939 763.918 837.996 764.89C838.093 766.556 838.038 768.022 839.278 769.273C839.738 769.737 840.008 769.893 840.518 770.242C841.569 769.647 841.07 769.976 842.016 769.257C842.911 770.194 843 770.165 843.059 771.445L842.063 772.761L843.284 774.64L843.886 774.58L844.56 773.452C846.726 775.893 847.354 779.285 849.372 781.751L850.035 780.986L850.909 781.105C852.167 783.006 851.392 785.201 852.779 786.962L853.25 787.028L853.311 784.974L854.008 785.022C855.555 786.837 855.535 787.75 855.493 790.044L856.087 790.897C856.863 790.71 857.41 790.508 858.127 790.183L859.292 790.968C859.648 792.927 857.95 792.708 859.104 794.378C860.117 794.256 860.901 794.036 861.848 793.659ZM817.056 719.13C841.101 747.545 861.918 778.657 885.796 807.24C887.436 807.033 889.23 804.365 890.274 803.027C891.172 801.859 892.056 800.681 892.925 799.493C890.24 794.116 885.689 789.093 882.121 784.224C869.995 767.675 857.178 751.76 844.652 735.521C840.209 729.761 829.969 714.771 825.75 710.859C822.965 713.769 820.087 716.477 817.056 719.13ZM606.606 617.978C613.879 632.714 620.901 647.571 627.671 662.545C630.199 668.068 634.12 678.795 637.189 683.353L637.696 683.346C662.587 672.484 686.698 659.455 712.017 649.574C709.288 643.011 706.005 636.693 702.204 630.688C699.589 626.613 695.905 622.181 693.929 617.813C693.129 616.044 693.202 614.647 693.275 612.74C693.311 611.782 693.419 610.799 693.038 609.895C691.284 605.73 684.347 594.359 681.229 591.269C681.169 591.21 681.092 591.171 681.024 591.122C655.834 599.089 631.393 608.895 606.606 617.978ZM904.768 768.543L859.17 709.057C853.435 701.55 846.378 690.46 840.356 683.88C839.379 687.588 838.309 691.295 837.45 695.032C841.967 701.836 847.257 708.171 852.248 714.634C857.988 722.2 863.677 729.805 869.314 737.448L893.76 770.255C896.584 774.012 899.06 778.176 902.062 781.772C903.6 777.401 904.193 773.117 904.768 768.543ZM555.385 757.771C540.037 758.168 524.685 758.402 509.332 758.472C518.901 772.926 527.87 788.089 538.144 802.036L547.851 802.569C562.592 803.895 577.446 803.853 592.208 804.794C583.742 788.673 573.213 773.446 564.168 757.598C561.243 757.654 558.308 757.663 555.385 757.771ZM793.083 639.714C785.609 640.415 778.291 643.166 771.493 646.264C773.718 650.077 776.405 653.414 779.162 656.844C787.67 654.422 797.127 651.481 805.484 656.163C810.277 658.848 813.23 663.788 814.58 669.001C816.659 677.028 813.956 685.106 809.751 691.939C803.032 702.856 792.447 710.84 779.867 713.666C772.015 715.43 763.309 715.084 756.38 710.612C750.977 707.173 747.208 701.683 745.94 695.405C745.351 692.525 745.25 689.495 745.052 686.567C743.244 684.277 740.052 678.293 737.39 677.843C736.659 678.78 736.377 679.574 736.029 680.705C734.129 692.018 733.076 703.144 739.993 713.127C745.296 720.782 753.414 724.789 762.408 726.282C776.749 728.663 792.767 723.211 804.303 714.804C816.942 705.595 827.066 692.156 829.35 676.369C830.646 667.417 829.025 658.443 823.624 651.058C818.771 644.421 811.172 640.798 803.165 639.766C799.867 639.341 796.395 639.468 793.083 639.714ZM499.929 758.395C485.936 766.848 471.235 774.023 457.103 782.227C459.818 787.812 483.44 835.804 485.338 837.246L485.808 837.088L511.036 818.351C517.273 813.702 523.883 809.189 529.329 803.609C526.052 797.773 521.937 792.324 518.401 786.618C514.286 779.976 505.431 763.648 500.577 758.577L499.929 758.395ZM623.363 702.083C608.534 718.864 592.035 734.033 576.883 750.505C583.125 761.806 589.966 772.832 596.673 783.86C600.629 790.366 604.4 797.254 608.764 803.488C613.848 799.575 618.214 793.873 622.481 789.098C633.367 776.914 643.649 764.054 654.796 752.125C651.811 747.007 648.39 742.179 645.234 737.168C637.901 725.526 630.487 713.849 623.363 702.083ZM129.115 882.772L132.663 886.533C147.32 881.662 161.935 876.664 176.506 871.539C180.433 861.809 183.316 851.661 187.102 841.867C178.964 833.257 169.677 825.777 161.438 817.287C159.069 814.847 157.686 811.343 155.299 809.071C149.464 811.367 143.891 814.296 138.142 816.802C123.019 823.396 107.781 829.935 92.4899 836.129C95.0109 841.037 98.5486 845.585 101.864 849.981C110.511 861.444 120.031 871.732 129.115 882.772ZM428.802 858.124C417.364 862.722 406.096 867.72 394.646 872.289C385.973 875.749 377.091 878.722 368.511 882.401C370.537 891.468 381.367 909.826 385.941 918.934C389.5 926.02 392.705 934.196 397.064 940.765C398.997 940.205 401.007 939.724 402.893 939.027C424.323 931.955 444.869 921.552 464.713 910.887C461.007 903.549 434.239 863.244 428.802 858.124Z"/><path fill="#17183B" transform="scale(0.0625 0.0625)" d="M425.607 448.763C456.996 447.162 491.288 454.677 515.205 476.097C531.136 490.52 540.669 510.692 541.698 532.157C544.342 579.484 515.683 629.447 485.139 663.703C449.178 704.293 402.925 734.421 351.262 750.905C336.088 755.61 320.278 759.206 304.377 760.121C304.022 760.157 303.667 760.19 303.312 760.219C273.915 762.478 239.702 757.644 216.71 737.732C199.978 723.242 191.861 703.778 190.435 681.853C188.06 645.328 202.372 606.271 221.883 575.84C229.982 563.207 239.936 550.814 249.894 539.591C282.998 502.282 337.373 467.976 385.885 454.988C398.892 451.63 412.196 449.545 425.607 448.763ZM298.028 745.74C362.093 743.599 426.363 705.148 469.209 659.3C499.569 626.814 529.905 579.047 528.279 533.077C527.589 513.563 520.611 494.123 505.999 480.735C486.37 462.749 457.08 455.938 431.112 456.73C414.749 457.741 399.137 460.019 383.333 464.452C334.907 478.036 286.757 509.901 253.609 547.512C224.271 580.802 196.859 629.897 199.946 675.531C201.206 694.17 209.171 711.402 223.429 723.644C244.158 741.442 271.59 745.597 298.028 745.74Z"/><path fill="#17183B" transform="scale(0.0625 0.0625)" d="M413.084 482.739C434.534 482.128 455.229 485.996 471.369 501.061C483.13 512.039 488.291 526.59 488.747 542.444C489.842 580.551 467.635 616.523 442.227 643.278C408.194 679.115 355.944 710.384 305.48 711.701C284.134 711.879 266.382 709.091 249.654 694.827C237.752 684.677 231.869 669.245 230.672 653.94C227.97 619.397 249.992 582.665 271.972 557.405C305.065 519.375 362.283 486.397 413.084 482.739ZM275.075 574.379C279.288 584.253 283.814 593.992 287.735 603.988C292.334 615.713 296.406 627.989 301.506 639.471L302.228 640.529C306.814 637.074 312.056 626.894 316.158 621.979C311.638 611.098 307.777 599.897 303.704 588.841C299.669 577.885 294.998 566.314 292.24 554.978C285.952 560.921 280.207 567.413 275.075 574.379ZM372.724 573.658C378.522 571.135 384.32 568.389 390.237 566.171C397.517 563.235 406.72 561.705 413.252 557.839C410.689 550.209 377.801 510.185 371.489 506.806C370.992 506.54 370.831 506.561 370.339 506.51C364.673 508.716 359.021 511.058 353.292 513.088C359.749 533.09 364.268 554.413 372.724 573.658ZM257.445 600.375C266.274 617.163 272.647 635.41 279.552 653.063C281.954 659.204 284.081 665.829 286.996 671.732L287.474 672.363C289.054 670.418 296.172 651.749 297.735 647.87C294.923 640.739 273.076 582.966 270.24 580.338C265.241 586.114 260.961 593.599 257.445 600.375ZM367.312 577.518C362.015 561.563 356.605 545.752 351.964 529.58C351.353 527.451 349.091 517.092 347.903 516.062C339.267 520.548 330.895 525.171 322.867 530.7C329.72 551.151 334.401 573.53 344.562 592.655L345.289 593.279C352.585 588.173 360.619 583.371 367.312 577.518ZM247.09 626.023C252.616 639.75 258.868 653.24 264.83 666.787C269.56 677.536 273.803 689.724 280.464 699.437L281.655 700.128C283.108 698.337 284.147 686.32 283.893 683.552C283.33 677.42 271.14 651.016 267.848 642.938C264.027 633.559 260.605 623.932 256.484 614.69C255.655 612.83 254.582 610.244 253.128 608.807C250.821 614.438 248.805 620.185 247.09 626.023ZM296.192 702.631C306.163 703.851 317.386 702.797 327.13 700.484C378.432 690.841 428.054 653.74 457.178 611.263C465.869 598.586 472.318 585.496 476.948 570.825C466.11 567.684 455.08 566.018 443.793 566.219C400.451 568.981 359.026 594.4 330.727 626.38C312.119 647.408 299.353 674.642 296.192 702.631ZM270.1 696.718C266.849 690.643 264.392 684.086 261.705 677.745C257.947 668.909 254.125 660.102 250.239 651.322C248.746 647.921 247.063 642.288 244.777 639.433C242.133 654.427 245.488 669.858 254.119 682.401C258.197 688.252 263.631 693.602 270.1 696.718ZM317.882 534.131C310.423 539.261 303.341 544.906 296.326 550.624L311.742 591.241C314.603 598.885 317.121 606.925 320.548 614.319L321.316 615.743C325.338 613.509 333.45 602.723 339.29 598.629C333.768 585.166 328.874 571.453 324.625 557.535C322.576 550.7 320.716 540.275 317.882 534.131Z"/><path fill="#171422" fill-opacity="0.98039216" transform="scale(0.0625 0.0625)" d="M732.589 628.483C736.33 633.149 739.931 638.265 743.973 642.648C743.024 643.347 741.462 644.878 740.34 644.78C740.694 643.239 741.039 641.828 741 640.232C739.649 639.31 737.576 639.869 735.981 640.103L736.331 639.548L736.615 640.105L736.834 639.124L738.343 637.841C737.911 636.585 737.782 636.764 736.712 636.116C735.639 636.75 735.296 637.361 734.609 638.357L733.92 638.199L735.759 634.781L735.336 634.156C733.949 634.52 733.42 635.262 732.433 636.242L731.754 636.104L731.556 635.305L733.408 633.138L733.095 632.339L732.351 632.31L730.373 634.262C730.387 633.266 730.624 632.683 730.961 631.758C729.898 631.531 729.386 632.128 728.478 632.658C728.296 631.547 728.818 631.124 729.343 630.162L730.997 630.158L732.589 628.483Z"/><path fill="#F7F4F0" transform="scale(0.0625 0.0625)" d="M822.154 745.303C825.241 746.308 828.69 749.683 830.736 752.146L830.437 752.569C829.601 752.057 829.038 751.744 828.061 751.606L827.745 752.55C825.903 750.128 823.457 748.041 822.154 745.303Z"/><path fill="#17183B" transform="scale(0.0625 0.0625)" d="M720.251 64.2404C733.204 63.9341 745.87 64.0361 758.764 65.4031C793.272 69.0619 825.433 77.6609 855.136 96.1672C861.189 99.9386 867.864 103.861 872.389 109.457C868.943 120.979 856.49 168.792 851.583 175.533C847.972 177.029 835.801 174.355 831.307 173.899C817.922 162.565 802.68 151.318 784.155 152.487C768.34 153.486 752.656 157.756 741.866 170.027C735.284 177.513 732.243 188.423 737.155 197.647C739.476 202.005 743.362 206.091 743.555 211.252C743.76 216.753 737.09 220.966 733.584 224.759C764.609 257.038 796.151 288.815 828.199 320.078C843.272 334.594 858.97 348.46 874.023 362.964L931.631 419.416C937.984 425.54 966.283 453.433 969.619 459.323C972.523 464.45 973.922 471.855 973.986 477.702C974.109 488.877 969.925 500.691 961.928 508.648C955.031 515.51 944.602 519.042 934.98 519.028C930.196 519.021 925.209 518.212 920.996 515.848C912.27 510.952 892.792 489.406 884.641 481.169C879.372 476.195 874.603 470.644 869.481 465.505L828.195 424.484C820.544 416.945 812.847 409.402 805.049 402.016C800.28 397.499 795.067 393.167 790.642 388.324C787.894 385.315 785.918 381.662 783.216 378.605C777.737 372.403 771.81 366.543 766.209 360.441L722.191 312.657C708.695 298.183 695.805 283.107 681.636 269.267C677.621 272.894 666.36 284.442 661.476 285.018C650.72 286.287 623.9 264.551 614.634 257.406C613.708 257.674 612.788 257.965 611.876 258.278C597.806 263.137 588.353 272.813 583.446 286.771C581.653 291.869 580.456 297.371 578.063 302.218C577.978 302.39 577.888 302.559 577.801 302.729C570.416 305.961 560.675 308.684 552.642 309.155C540.196 309.886 526.539 299.389 517.772 291.523C506.549 281.452 496.892 267.578 496.232 252.041C495.935 245.072 497.472 238.235 499.786 231.698C500.905 228.538 502.751 222.454 505.166 220.101C512.033 213.408 541.738 216.514 553.777 202.679C559.216 196.428 554.593 186.691 552.881 179.746C551.825 175.461 551.001 171.033 550.744 166.622C550.112 155.752 551.698 149.827 558.957 141.662C600.692 94.7179 657.712 67.7453 720.251 64.2404ZM544.051 258.954C551.896 271.171 558.44 281.444 559.716 296.229C562.491 295.518 565.262 294.847 567.962 293.88C569.799 280.811 579.812 263.791 590.347 255.814C597.581 250.336 607.044 245.444 616.179 244.494C628.78 250.437 638.44 262.795 653.174 268.568C649.033 263.973 644.251 259.952 639.667 255.809C631.726 248.633 623.704 241.528 615.851 234.26C612.094 230.783 608.12 227.372 604.81 223.457C602.516 213.05 600.745 199.372 602.82 188.93C604.29 187.366 605.724 185.762 607.336 184.343C612.397 179.315 626.486 163.521 632.905 163.168C634.184 163.098 634.567 163.435 635.359 164.271C635.536 166.724 634.161 168.51 632.622 170.288C625.367 178.675 615.842 185.25 608.624 193.742C609.402 202.542 609.478 211.468 610.455 220.225C621.617 230.331 632.644 240.587 643.532 250.99C649.747 256.948 655.701 263.343 662.322 268.837C676.599 257.898 690.216 245.331 703.791 233.51C712.23 226.161 721.526 219.103 729.365 211.141C724.132 198.447 719.409 187.885 725.117 174.322C730.991 160.363 743.405 149.959 757.269 144.45C776.983 136.617 802.878 135.429 822.486 144.143C831.062 147.955 838.005 153.347 845.656 158.622C848.052 152.993 849.459 146.898 851.127 141.019C853.842 131.454 856.515 121.861 859.656 112.425C833.267 101.071 798.17 94.9944 769.626 96.2384C701.607 99.7124 639.435 138.04 594.452 187.489L594.469 188.119C594.706 195.038 599 218.483 594.715 222.759C589.432 228.033 576.745 231.849 569.788 235.984C560.101 241.741 551.661 250.698 544.051 258.954ZM812.834 397.384C815.454 399.642 818.045 401.949 820.704 404.161C823.563 405.837 842.775 402.435 846.947 401.42C847.093 401.384 847.237 401.343 847.383 401.305C847.583 385.203 847.197 369.058 847.619 352.965C845.493 351.693 843.645 350.437 841.776 348.79C841.466 364.919 841.373 381.051 841.496 397.182C832.014 397.961 822.338 397.51 812.834 397.384ZM585.835 187.967C580.055 182.176 569.36 171.034 562.87 166.777L563.01 167.705C565.177 181.534 573.645 196.83 564.209 209.832C555.302 222.105 538.715 224.231 524.926 226.457C522.184 226.899 517.943 227.114 515.606 228.712C514.84 229.235 514.489 230.022 514.092 230.82C514.459 233.159 531.903 250.529 534.875 252.895C535.977 253.842 536.867 255.076 538.342 255.142C549.255 243.784 557.427 234.557 571.748 226.979C577.009 224.195 582.642 222.163 587.869 219.361C588.138 208.897 586.132 198.445 585.835 187.967ZM723.179 76.2151C665.584 79.2105 610.727 103.158 571.885 146.342C569.644 148.825 567.452 151.352 565.31 153.921C573.83 160.467 581.141 168.335 589.607 174.857C598.486 165.437 607.833 156.692 617.38 147.965C653.241 118.445 700.331 91.7896 747.148 86.3982C766.636 84.1541 782.103 85.5029 801.216 85.6101C777.165 77.2532 748.524 75.1319 723.179 76.2151ZM868.319 421.898C858.647 422.523 848.935 422.673 839.249 423.013C841.32 424.841 843.356 426.748 845.515 428.471C853.505 429.481 865.513 426.228 873.614 424.874C874.202 409.092 874.006 393.231 874.066 377.437C872.18 375.449 870.371 373.385 868.158 371.755C867.775 388.398 868.143 405.241 868.319 421.898ZM946.073 449.269C944.422 460.732 945.446 476.417 945.708 488.274C937.842 488.944 914.716 489.772 909.009 492.448L908.403 493.351C908.676 493.972 908.728 494.518 909.388 494.834C910.686 495.456 912.512 495.12 913.92 495.037C926.215 493.726 938.622 493.049 950.95 492.061C951.275 479.589 951.461 467.068 950.754 454.604C949.238 452.791 947.765 450.922 946.073 449.269ZM868.733 453.059C879.687 452.175 890.703 451.558 901.564 449.807C901.681 435.083 900.988 420.141 901.652 405.446C900.08 403.526 898.533 401.617 896.775 399.86C896.62 415.231 897.092 430.593 896.435 445.959C885.473 445.83 874.554 446.747 863.591 446.522C865.17 448.937 866.686 451.004 868.733 453.059ZM691.232 261.038C701.354 273.516 713.092 284.733 724.016 296.513C748.584 323.007 773.078 349.212 796.22 376.98C797.988 376.536 799.9 376.201 801.615 375.604L807.521 373.601C795.995 361.373 784.387 349.222 772.699 337.148C764.803 328.832 757.176 320.25 749.208 312.006C731.394 293.578 713.196 275.356 695.891 256.451C694.33 257.957 692.682 259.426 691.232 261.038ZM921.559 424.966C921.461 438.976 922.216 453.508 920.838 467.431C908.641 468.044 896.416 469.242 884.205 469.387C885.861 471.484 887.552 473.56 889.152 475.699C901.32 474.623 913.682 472.991 925.782 471.315L926.004 429.311C924.655 427.558 923.331 426.289 921.559 424.966ZM816.731 369.18C821.997 359.697 824.817 347.547 825.953 336.797C824.637 334.612 823.08 332.782 821.334 330.931C815.396 324.636 808.999 318.716 802.856 312.618L761.275 271.365L735.362 245.038C731.568 241.206 727.037 235.533 722.429 232.816C721.131 234.028 719.798 235.203 718.676 236.585C719.66 240.052 720.582 242.587 718.786 246.022C716.538 250.32 711.158 253.946 707.304 256.818C721.989 271.672 736.243 286.925 750.873 301.833C771.817 323.174 793.063 344.24 813.25 366.311L816.731 369.18ZM549.624 296.601C548.2 288.432 544.202 273.013 537.958 267.189C534.042 263.536 529.283 260.86 525.369 257.166C520.219 252.304 515.487 246.285 509.979 241.904C509.894 241.837 509.799 241.782 509.709 241.721C507.502 251.483 509.526 261.286 514.806 269.692C521.488 280.332 535.837 293.652 548.426 296.371C548.824 296.456 549.223 296.532 549.624 296.601Z"/><path fill="#17183B" transform="scale(0.0625 0.0625)" d="M665.732 138.475L667.748 139.513C668.354 140.633 668.629 140.926 668.229 142.231C667.047 146.09 658.668 149.964 655.214 151.549C654.023 151.41 653.518 150.949 652.606 150.205C652.298 149.215 652.111 148.74 652.576 147.716C654.272 143.982 662.108 140.25 665.732 138.475Z"/><path fill="#17183B" transform="scale(0.0625 0.0625)" d="M777.175 294.29C781.926 296.227 815.113 329.05 817.134 333.855C817.768 335.361 817.309 336.407 816.8 337.855C815.413 337.47 814.419 336.847 813.322 335.933C809.511 332.759 778.662 300.744 777.034 297.539C776.297 296.087 776.644 295.725 777.175 294.29Z"/><path fill="#17183B" transform="scale(0.0625 0.0625)" d="M220.144 277.113C221.547 276.922 222.661 276.849 224.067 276.998C228.474 279.48 227.741 288.571 228.398 292.984C228.944 296.656 229.729 300.083 231.05 303.561C237.785 321.301 245.738 329.474 264.227 335.044C267.247 335.954 271.475 335.137 274.152 336.657C275.739 337.558 276.389 338.528 276.93 340.23C276.699 341.869 276.449 342.699 274.896 343.594C273.192 344.575 270.089 344.674 268.089 345.143C258.476 347.401 248.772 350.895 242.032 358.427C233.765 367.667 229.621 380.396 227.529 392.412C226.645 397.489 227.202 405.937 224.054 409.922C222.947 410.016 221.69 410.191 220.6 409.923C219.454 409.642 218.759 408.903 218.483 407.808C217.719 404.784 217.973 401.055 217.745 397.9C217.018 387.834 215.095 378.216 210.528 369.15C205.3 358.773 197.957 351.685 186.532 348.647C181.849 347.402 176.907 346.772 172.336 345.159C170.551 344.53 168.095 343.51 167.331 341.632C167.024 340.878 167.383 340.456 167.637 339.74C171.499 336.053 179.105 336.313 184.222 334.905C205.841 328.958 213.082 310.426 217.436 290.158C218.377 285.775 217.881 281.106 220.144 277.113ZM186.305 341.373C198.693 345.047 208.535 351.858 214.852 363.436C217.955 369.124 219.85 380.486 222.461 384.333C222.659 383.85 222.889 383.409 222.952 382.887C226.523 368.884 232.287 355.053 245.137 347.306C250.065 344.335 255.388 342.435 260.918 340.918C246.195 335.908 235.346 328.787 228.322 314.56C225.817 309.486 224.387 301.055 222.072 297.317C218.056 313.07 212.856 327.398 198.193 336.053C194.499 338.233 190.363 339.998 186.305 341.373Z"/><path fill="#17183B" transform="scale(0.0625 0.0625)" d="M357.703 213.031C358.276 213.149 358.859 213.263 359.422 213.427C360.606 213.77 360.969 214.311 361.33 215.428C362.288 218.397 362.342 222.056 362.773 225.167C363.877 233.128 366.322 241.281 370.429 248.223C374.62 255.307 381.11 259.855 389.281 261.219C392.265 261.718 395.425 261.786 398.339 262.606C400.175 263.123 401.422 263.788 402.414 265.492C402.418 265.985 402.609 266.514 402.425 266.972C401.953 268.145 388.033 272.126 386.039 272.993C382.39 274.581 378.066 276.742 375.188 279.535C360.222 294.057 365.253 312.375 360.234 319.159C359.952 319.191 359.669 319.217 359.385 319.238C357.454 319.374 355.85 319.108 354.858 317.256C353.008 313.803 353.156 307.37 352.389 303.374C351.357 298.058 349.561 292.919 347.055 288.119C341.665 277.905 332.939 273.398 322.024 271.119C320.035 270.704 317.173 270.507 315.627 269.177C315.295 267.942 315.383 267.707 315.738 266.463C319.043 262.846 328.425 262.311 333.448 259.864C346.603 253.459 349.605 240.287 351.845 227.083C352.465 223.433 352.826 219.319 354.173 215.863C354.905 213.984 355.973 213.743 357.703 213.031ZM332.257 266.751C349.67 276.217 351.732 280.176 358.064 298.812C360.507 287.796 365.402 277.399 375.229 271.251C377.743 269.679 380.39 268.252 383.14 267.141C371.491 261.54 365.219 255.502 360.874 243.185C359.63 239.661 358.673 235.973 357.778 232.344C354.373 244.509 351.166 257.071 339.299 263.663C337.057 264.909 334.651 265.842 332.257 266.751Z"/><path fill="#17183B" transform="scale(0.0625 0.0625)" d="M896.326 204.058C897.273 203.954 898.209 203.886 899.161 203.953C901.021 204.085 902.294 204.9 903.058 206.616C904.423 209.683 904.174 213.623 904.618 216.928C905.783 225.594 910.558 236.023 916.525 242.44C922.167 248.508 927.06 249.03 934.76 249.558C937.385 249.738 939.763 250.148 941.545 252.222C941.736 253.026 941.967 253.444 941.716 254.268C941.357 255.449 940.547 256.682 939.42 257.227C934.9 259.41 929.62 257 921.669 261.873C911.722 267.968 906.883 281.209 905.031 292.195C904.307 296.488 904.167 300.831 903.181 305.082C902.704 305.463 902.396 305.741 901.86 306.04C900.635 306.722 899.229 306.961 897.876 306.549C897.218 306.349 896.488 305.672 896.125 305.092C895.268 303.724 894.319 294.395 893.791 292.039C892.71 287.216 891.156 281.808 888.92 277.395C885.582 270.807 879.734 262.146 872.099 260.431C868.464 259.615 864.738 259.918 861.137 258.778C860.202 257.881 859.709 257.465 859.641 256.057C859.396 250.973 870.395 251.395 873.954 250.003C877.978 248.429 881.128 245.601 883.723 242.207C889.427 234.749 892.235 225.902 893.349 216.64C893.726 213.507 893.752 210.055 894.46 206.996C894.768 205.666 895.391 204.966 896.326 204.058ZM877.754 255.259C888.001 261.428 892.46 268.252 896.743 279.304C897.178 280.427 898.716 286.263 899.617 286.567C903.47 273.088 908.483 261.724 920.582 253.843C911.064 249.561 906.576 240.898 902.432 231.91C901.309 229.475 900.299 226.657 898.824 224.43C894.786 236.606 890.301 248.733 878.229 255.028C878.073 255.109 877.912 255.182 877.754 255.259Z"/><path fill="#17183B" transform="scale(0.0625 0.0625)" d="M887.407 522.812L889.201 523.326C889.682 523.986 890.071 524.265 890.112 525.119C890.177 526.466 889.69 527.17 888.753 528.094C886.437 530.376 883.078 532.356 880.355 534.128C862.204 545.941 839.694 554.179 818.212 556.864C808.241 558.11 798.145 557.824 788.136 557.324C787.604 557.21 786.99 557.102 786.49 556.887C785.3 556.373 785.005 555.256 784.595 554.152C784.813 553.016 784.793 552.7 786.012 552.239C786.934 551.891 811.723 551.601 816.666 551.016C840.998 548.14 867.373 536.895 887.407 522.812Z"/><path fill="#17183B" transform="scale(0.0625 0.0625)" d="M446.727 203.898C454.299 202.067 461.936 206.665 463.86 214.214C465.784 221.764 461.279 229.456 453.754 231.472C448.804 232.798 443.523 231.36 439.929 227.707C436.335 224.053 434.983 218.749 436.39 213.821C437.797 208.893 441.746 205.103 446.727 203.898ZM451.76 226.141C456.218 225.32 459.184 221.062 458.408 216.596C457.632 212.13 453.404 209.121 448.93 209.852C445.996 210.331 443.545 212.35 442.511 215.138C441.478 217.926 442.021 221.054 443.934 223.33C445.848 225.606 448.836 226.679 451.76 226.141Z"/><path fill="#17183B" transform="scale(0.0625 0.0625)" d="M473.387 175.201C480.739 173.618 487.974 178.324 489.506 185.687C491.039 193.05 486.282 200.252 478.908 201.733C471.607 203.199 464.491 198.499 462.974 191.209C461.457 183.918 466.107 176.77 473.387 175.201ZM478.339 195.646C480.87 194.844 482.771 192.739 483.311 190.139C483.851 187.54 482.946 184.851 480.944 183.108C478.942 181.364 476.155 180.836 473.654 181.728C469.882 183.073 467.882 187.192 469.16 190.988C470.438 194.784 474.521 196.856 478.339 195.646Z"/><path fill="#17183B" transform="scale(0.0625 0.0625)" d="M684.365 875.451C685.527 875.484 686.13 875.688 687.155 876.231C687.982 877.429 687.982 877.413 687.832 878.86C682.942 886.678 624.304 907.869 612.672 910.853C611.695 910.722 611.144 910.626 610.498 909.748C609.656 908.603 609.749 908.084 610.025 906.822C611.225 905.476 612.534 904.711 614.19 903.999C624.185 899.697 634.887 896.426 645.065 892.476C658.394 887.303 671.349 881.353 684.365 875.451Z"/><path fill="#17183B" transform="scale(0.0625 0.0625)" d="M762.217 819.846C763.787 820.269 764.22 820.347 765.433 821.508C765.739 822.511 765.843 823.209 765.45 824.215C764.109 827.647 760.797 830.858 758.264 833.475C743.605 848.625 722.769 863.589 703.46 872.078C702.681 872.142 701.971 872.227 701.209 871.995C700.224 871.696 700.068 871.744 699.594 870.794C699.872 868.37 701.371 867.306 703.22 865.933C708.724 861.847 715.206 858.81 721.023 855.156C736.496 845.435 750.643 834.033 762.217 819.846Z"/><path fill="#17183B" transform="scale(0.0625 0.0625)" d="M779.104 841.323C780.705 841.943 781.166 841.978 782.192 843.412C782.334 844.416 782.355 845.005 781.996 845.983C778.146 856.48 738.368 879.046 726.629 883.651L725.018 883.049C724.073 881.91 723.613 881.279 723.244 879.801C724.304 876.539 731.513 874.051 734.659 872.366C750.965 863.631 764.947 853.072 779.104 841.323Z"/><path fill="#17183B" transform="scale(0.0625 0.0625)" d="M860.989 521.958C861.385 521.931 861.863 521.883 862.252 521.941C863.712 522.161 863.899 522.51 864.734 523.62C864.626 524.945 864.439 525.528 863.528 526.53C861.289 528.995 857.571 530.875 854.641 532.404C841.159 539.438 826.654 543.402 811.433 543.606C810.939 543.577 810.506 543.567 810.025 543.493C808.895 543.319 808.118 542.757 807.502 541.81C807.016 541.063 807.246 540.809 807.374 539.987C807.746 539.598 808.034 539.106 808.49 538.821C810.729 537.42 825.94 536.563 830.244 535.335C841.083 532.243 851.142 527.345 860.989 521.958Z"/><path fill="#17183B" transform="scale(0.0625 0.0625)" d="M597.859 909.088L598.539 909.079C599.829 909.968 599.968 910.492 600.633 911.875C600.524 912.624 600.584 913.011 600.072 913.627C596.195 918.286 562.956 925.496 555.62 926.387C554.422 926.228 553.99 926.012 553.089 925.211C552.601 923.684 552.568 923.364 552.88 921.795C553.238 921.405 553.526 920.937 553.953 920.623C554.011 920.581 594.302 909.888 597.859 909.088Z"/><path fill="#17183B" transform="scale(0.0625 0.0625)" d="M432.368 312.651C440.77 312.093 463.871 313.059 470.057 318.842C471.11 319.827 471.182 320.494 471.311 321.879C470.812 323.057 470.628 323.698 469.497 324.402C465.715 323.871 461.555 321.569 457.894 320.299C449.248 318.353 439.156 316.844 430.356 318.641C426.88 319.35 422.467 321.914 419.01 321.582C417.972 320.785 417.93 320.75 417.584 319.491C417.743 318.746 417.869 317.997 418.419 317.419C421.102 314.596 428.585 313.253 432.368 312.651Z"/><path fill="#17183B" transform="scale(0.0625 0.0625)" d="M430.643 299.755C443.202 298.775 455.028 300.096 467.15 303.446C470.384 304.34 473.426 305.968 475.087 308.974C475.143 310.298 475.212 310.493 474.52 311.601C473.313 311.835 472.593 311.935 471.4 311.603C462.797 308.419 454.617 305.869 445.411 305.16C442.137 304.908 438.739 304.648 435.458 304.836C433.15 304.968 430.375 305.63 428.099 305.345C427.03 305.212 426.584 304.96 425.762 304.306C425.601 303.496 425.38 303.364 425.876 302.615C427.082 300.788 428.588 300.226 430.643 299.755Z"/><path fill="#17183B" transform="scale(0.0625 0.0625)" d="M879.944 540.946C880.407 541.013 880.159 540.954 880.761 541.208C881.514 541.527 881.794 542.244 882.005 543.034C882.196 543.748 881.97 544.575 881.592 545.187C877.844 551.254 855.767 558.542 848.579 560.194C848.074 560.12 847.642 559.902 847.171 559.71L846.913 558.704C849.03 555.044 874.466 543.782 879.944 540.946Z"/><path fill="#17183B" transform="scale(0.0625 0.0625)" d="M439.535 166.786C440.945 167.54 441.592 167.785 442.215 169.273C441.467 171.94 429.818 193.556 427.958 195.582C426.63 195.007 426.32 194.893 425.461 193.75C425.337 192.794 425.331 192.067 425.546 191.114C426.989 184.716 434.126 170.312 439.535 166.786Z"/><path fill="#17183B" transform="scale(0.0625 0.0625)" d="M705.683 890.503C707.045 890.571 707.323 890.451 708.357 891.304C708.546 892.656 708.493 893.678 707.729 894.841C705.195 898.701 698.423 899.969 694.21 900.903C693.201 900.718 692.612 900.369 691.722 899.884C691.159 898.694 691.41 898.684 691.747 897.48C694.789 893.772 701.27 891.956 705.683 890.503Z"/><path fill="#17183B" transform="scale(0.0625 0.0625)" d="M415.873 171.79C416.341 171.801 417.081 171.804 417.523 171.88C418.897 172.115 419.125 172.453 419.962 173.472C420.431 177.253 416.871 181.527 414.658 184.38C414.168 184.431 413.23 184.603 412.715 184.493C411.414 184.215 411.261 183.847 410.648 182.79C410.448 179.019 413.532 174.57 415.873 171.79Z"/><path fill="#17183B" transform="scale(0.0625 0.0625)" d="M409.014 303.894C410.526 303.827 411.593 304.097 412.825 304.962C413.033 305.805 413.167 305.773 412.913 306.525C411.804 309.806 407.095 311.875 404.206 313.339C403.383 313.376 402.845 313.152 402.069 312.903C401.077 311.867 400.923 311.643 400.573 310.256C401.707 306.991 406.15 305.427 409.014 303.894Z"/></svg>